<svg xmlns="http://www.w3.org/2000/svg" fill="none" viewBox="0 0 128 128">
    <path d="m54 118 14 4 14-4 14-11 9-16 1-17-16-10c-20-12-28-21-38-34l15-11c18 15 45 37 55 63l7 13-1 6-2 9-8 17-13 12z" fill="#fff"/>
    <path d="M14 89a6 6 0 0 0-2-4 6 6 0 0 0-4-2 6 6 0 0 0-4 2 6 6 0 0 0-2 4 6 6 0 0 0 2 4 6 6 0 0 0 4 2 6 6 0 0 0 4-2 6 6 0 0 0 2-4zm56 8a6 6 0 0 0-2-4 6 6 0 0 0-4-2 6 6 0 0 0-4 2 6 6 0 0 0-2 4 6 6 0 0 0 2 4 6 6 0 0 0 4 2 6 6 0 0 0 4-2 6 6 0 0 0 2-4zm-14-24a6 6 0 0 0-2-4 6 6 0 0 0-4-2 6 6 0 0 0-4 2 6 6 0 0 0-2 4 6 6 0 0 0 2 4 6 6 0 0 0 4 2 6 6 0 0 0 4-2 6 6 0 0 0 2-4zm28 0a6 6 0 0 0-2-4 6 6 0 0 0-4-2 6 6 0 0 0-4 2 6 6 0 0 0-2 4 6 6 0 0 0 2 4 6 6 0 0 0 4 2 6 6 0 0 0 4-2 6 6 0 0 0 2-4zm14-24a6 6 0 0 0-2-4 6 6 0 0 0-4-2 6 6 0 0 0-4 2 6 6 0 0 0-2 4 6 6 0 0 0 2 4 6 6 0 0 0 4 2 6 6 0 0 0 4-2 6 6 0 0 0 2-4zm-56 0a6 6 0 0 0-2-4 6 6 0 0 0-4-2 6 6 0 0 0-4 2 6 6 0 0 0-2 4 6 6 0 0 0 2 4 6 6 0 0 0 4 2 6 6 0 0 0 4-2 6 6 0 0 0 2-4zm28-24a6 6 0 0 0-2-4 6 6 0 0 0-4-2 6 6 0 0 0-4 2 6 6 0 0 0-2 4 6 6 0 0 0 2 4 6 6 0 0 0 4 2 6 6 0 0 0 4-2 6 6 0 0 0 2-4zm0 96a6 6 0 0 0-2-4 6 6 0 0 0-4-2 6 6 0 0 0-4 2 6 6 0 0 0-2 4 6 6 0 0 0 2 4 6 6 0 0 0 4 2 6 6 0 0 0 4-2 6 6 0 0 0 2-4z" fill="#9333ea"/>
</svg>