<?xml version="1.0" encoding="UTF-8" standalone="no"?>
<!DOCTYPE svg PUBLIC "-//W3C//DTD SVG 1.1//EN"
 "http://www.w3.org/Graphics/SVG/1.1/DTD/svg11.dtd">
<!-- Generated by graphviz version 10.0.1 (0)
 -->
<!-- Title: job_costing_flow Pages: 1 -->
<svg width="1165pt" height="293pt"
 viewBox="0.00 0.00 1164.75 293.06" xmlns="http://www.w3.org/2000/svg" xmlns:xlink="http://www.w3.org/1999/xlink">
<g id="graph0" class="graph" transform="scale(1 1) rotate(0) translate(4 289.06)">
<title>job_costing_flow</title>
<polygon fill="white" stroke="none" points="-4,4 -4,-289.06 1160.75,-289.06 1160.75,4 -4,4"/>
<text text-anchor="middle" x="578.38" y="-267.76" font-family="Helvetica,sans-Serif" font-size="14.00">Job&#45;Costing Flow — Raw Materials → WIP → Finished Goods</text>
<text text-anchor="middle" x="578.38" y="-250.51" font-family="Helvetica,sans-Serif" font-size="14.00">(the flow deliberately stops at Finished Goods: no COGS/shipment costing exists)</text>
<!-- RM -->
<g id="node1" class="node">
<title>RM</title>
<path fill="#cfe3f5" stroke="#5b8db8" d="M351.5,-82.81C351.5,-82.81 209.5,-82.81 209.5,-82.81 203.5,-82.81 197.5,-76.81 197.5,-70.81 197.5,-70.81 197.5,-46.31 197.5,-46.31 197.5,-40.31 203.5,-34.31 209.5,-34.31 209.5,-34.31 351.5,-34.31 351.5,-34.31 357.5,-34.31 363.5,-40.31 363.5,-46.31 363.5,-46.31 363.5,-70.81 363.5,-70.81 363.5,-76.81 357.5,-82.81 351.5,-82.81"/>
<text text-anchor="middle" x="280.5" y="-68.36" font-family="Helvetica,sans-Serif" font-size="11.00">Raw Materials Inventory</text>
<text text-anchor="middle" x="280.5" y="-54.86" font-family="Helvetica,sans-Serif" font-size="11.00">gl_raw_materials_inventory</text>
<text text-anchor="middle" x="280.5" y="-41.36" font-family="Helvetica,sans-Serif" font-size="11.00">(signed lines: + in / − out)</text>
</g>
<!-- WIP -->
<g id="node2" class="node">
<title>WIP</title>
<path fill="#cfe3f5" stroke="#5b8db8" d="M724.5,-175.56C724.5,-175.56 594.5,-175.56 594.5,-175.56 588.5,-175.56 582.5,-169.56 582.5,-163.56 582.5,-163.56 582.5,-125.56 582.5,-125.56 582.5,-119.56 588.5,-113.56 594.5,-113.56 594.5,-113.56 724.5,-113.56 724.5,-113.56 730.5,-113.56 736.5,-119.56 736.5,-125.56 736.5,-125.56 736.5,-163.56 736.5,-163.56 736.5,-169.56 730.5,-175.56 724.5,-175.56"/>
<text text-anchor="middle" x="659.5" y="-161.11" font-family="Helvetica,sans-Serif" font-size="11.00">WIP Inventory</text>
<text text-anchor="middle" x="659.5" y="-147.61" font-family="Helvetica,sans-Serif" font-size="11.00">gl_wip_inventory</text>
<text text-anchor="middle" x="659.5" y="-134.11" font-family="Helvetica,sans-Serif" font-size="11.00">(accumulates job cost;</text>
<text text-anchor="middle" x="659.5" y="-120.61" font-family="Helvetica,sans-Serif" font-size="11.00">nets to 0 for closed jobs)</text>
</g>
<!-- RM&#45;&gt;WIP -->
<g id="edge1" class="edge">
<title>RM&#45;&gt;WIP</title>
<path fill="none" stroke="#3d7a3d" stroke-width="2" d="M363.85,-68.49C415.52,-75.68 483.23,-86.86 542,-102.31 551.63,-104.84 561.58,-107.84 571.42,-111.05"/>
<polygon fill="#3d7a3d" stroke="#3d7a3d" stroke-width="2" points="568.58,-113.79 579.18,-113.65 570.8,-107.15 568.58,-113.79"/>
<text text-anchor="middle" x="461.75" y="-131.31" font-family="Helvetica,sans-Serif" font-size="10.00" fill="#3d7a3d">Material Issued</text>
<text text-anchor="middle" x="461.75" y="-118.56" font-family="Helvetica,sans-Serif" font-size="10.00" fill="#3d7a3d">post_material_issue</text>
<text text-anchor="middle" x="461.75" y="-105.81" font-family="Helvetica,sans-Serif" font-size="10.00" fill="#3d7a3d">RM_ISSUE &#160;(−RM, +WIP)</text>
</g>
<!-- ev -->
<g id="node8" class="node">
<title>ev</title>
<path fill="#efe8d8" stroke="#b09660" d="M759,-73.75C759,-77.82 714.4,-81.12 659.5,-81.12 604.6,-81.12 560,-77.82 560,-73.75 560,-73.75 560,-7.38 560,-7.38 560,-3.31 604.6,0 659.5,0 714.4,0 759,-3.31 759,-7.38 759,-7.38 759,-73.75 759,-73.75"/>
<path fill="none" stroke="#b09660" d="M759,-73.75C759,-69.68 714.4,-66.38 659.5,-66.38 604.6,-66.38 560,-69.68 560,-73.75"/>
<text text-anchor="middle" x="659.5" y="-56.56" font-family="Helvetica,sans-Serif" font-size="10.00">gl_events</text>
<text text-anchor="middle" x="659.5" y="-43.81" font-family="Helvetica,sans-Serif" font-size="10.00">one row per posting</text>
<text text-anchor="middle" x="659.5" y="-31.06" font-family="Helvetica,sans-Serif" font-size="10.00">idempotency key:</text>
<text text-anchor="middle" x="659.5" y="-18.31" font-family="Helvetica,sans-Serif" font-size="10.00">(source_table, source_id, event_type)</text>
</g>
<!-- RM&#45;&gt;ev -->
<g id="edge6" class="edge">
<title>RM&#45;&gt;ev</title>
<path fill="none" stroke="#b09660" stroke-dasharray="1,5" d="M363.77,-43.93C369.76,-43.19 375.71,-42.55 381.5,-42.06 440.44,-37.07 506.69,-36.53 559.62,-37.32"/>
<text text-anchor="middle" x="461.75" y="-54.46" font-family="Helvetica,sans-Serif" font-size="8.00" fill="#8a733f">all four postings</text>
<text text-anchor="middle" x="461.75" y="-44.71" font-family="Helvetica,sans-Serif" font-size="8.00" fill="#8a733f">write gl_events</text>
</g>
<!-- FG -->
<g id="node3" class="node">
<title>FG</title>
<path fill="#cfe3f5" stroke="#5b8db8" d="M1124.5,-205.81C1124.5,-205.81 978.75,-205.81 978.75,-205.81 972.75,-205.81 966.75,-199.81 966.75,-193.81 966.75,-193.81 966.75,-169.31 966.75,-169.31 966.75,-163.31 972.75,-157.31 978.75,-157.31 978.75,-157.31 1124.5,-157.31 1124.5,-157.31 1130.5,-157.31 1136.5,-163.31 1136.5,-169.31 1136.5,-169.31 1136.5,-193.81 1136.5,-193.81 1136.5,-199.81 1130.5,-205.81 1124.5,-205.81"/>
<text text-anchor="middle" x="1051.62" y="-191.36" font-family="Helvetica,sans-Serif" font-size="11.00">Finished Goods Inventory</text>
<text text-anchor="middle" x="1051.62" y="-177.86" font-family="Helvetica,sans-Serif" font-size="11.00">gl_finished_goods_inventory</text>
<text text-anchor="middle" x="1051.62" y="-164.36" font-family="Helvetica,sans-Serif" font-size="11.00">(flow terminus)</text>
</g>
<!-- WIP&#45;&gt;FG -->
<g id="edge2" class="edge">
<title>WIP&#45;&gt;FG</title>
<path fill="none" stroke="#3d7a3d" stroke-width="2" d="M736.65,-151.78C799.11,-157.71 887.89,-166.13 955.11,-172.5"/>
<polygon fill="#3d7a3d" stroke="#3d7a3d" stroke-width="2" points="953.26,-175.84 963.54,-173.3 953.92,-168.87 953.26,-175.84"/>
<text text-anchor="middle" x="852.75" y="-198.31" font-family="Helvetica,sans-Serif" font-size="10.00" fill="#3d7a3d">Job Completion</text>
<text text-anchor="middle" x="852.75" y="-185.56" font-family="Helvetica,sans-Serif" font-size="10.00" fill="#3d7a3d">post_job_completion</text>
<text text-anchor="middle" x="852.75" y="-172.81" font-family="Helvetica,sans-Serif" font-size="10.00" fill="#3d7a3d">FG_COMPLETION &#160;(−WIP, +FG)</text>
</g>
<!-- jcd -->
<g id="node7" class="node">
<title>jcd</title>
<path fill="#efe8d8" stroke="#b09660" d="M1156.75,-133.58C1156.75,-136.77 1109.63,-139.36 1051.62,-139.36 993.62,-139.36 946.5,-136.77 946.5,-133.58 946.5,-133.58 946.5,-81.55 946.5,-81.55 946.5,-78.36 993.62,-75.77 1051.62,-75.77 1109.63,-75.77 1156.75,-78.36 1156.75,-81.55 1156.75,-81.55 1156.75,-133.58 1156.75,-133.58"/>
<path fill="none" stroke="#b09660" d="M1156.75,-133.58C1156.75,-130.39 1109.63,-127.8 1051.62,-127.8 993.62,-127.8 946.5,-130.39 946.5,-133.58"/>
<text text-anchor="middle" x="1051.62" y="-117.19" font-family="Helvetica,sans-Serif" font-size="10.00">gl_job_cost_detail</text>
<text text-anchor="middle" x="1051.62" y="-104.44" font-family="Helvetica,sans-Serif" font-size="10.00">per&#45;event cost register</text>
<text text-anchor="middle" x="1051.62" y="-91.69" font-family="Helvetica,sans-Serif" font-size="10.00">elements: MATERIAL / LABOR / BURDEN</text>
</g>
<!-- WIP&#45;&gt;jcd -->
<g id="edge7" class="edge">
<title>WIP&#45;&gt;jcd</title>
<path fill="none" stroke="#b09660" stroke-dasharray="1,5" d="M736.93,-136.17C750.28,-134.76 764.04,-133.34 777,-132.06 832.89,-126.56 895.25,-120.94 946.31,-116.47"/>
<text text-anchor="middle" x="852.75" y="-143.46" font-family="Helvetica,sans-Serif" font-size="8.00" fill="#8a733f">RM_ISSUE / LABOR / BURDEN</text>
<text text-anchor="middle" x="852.75" y="-133.71" font-family="Helvetica,sans-Serif" font-size="8.00" fill="#8a733f">also write cost detail</text>
</g>
<!-- mi -->
<g id="node4" class="node">
<title>mi</title>
<polygon fill="#f4f4f4" stroke="#999999" points="109,-79.44 0,-79.44 0,-37.69 115,-37.69 115,-73.44 109,-79.44"/>
<polyline fill="none" stroke="#999999" points="109,-79.44 109,-73.44"/>
<polyline fill="none" stroke="#999999" points="115,-73.44 109,-73.44"/>
<text text-anchor="middle" x="57.5" y="-66.89" font-family="Helvetica,sans-Serif" font-size="9.00">material_issue</text>
<text text-anchor="middle" x="57.5" y="-55.64" font-family="Helvetica,sans-Serif" font-size="9.00">(amount = total_cost,</text>
<text text-anchor="middle" x="57.5" y="-44.39" font-family="Helvetica,sans-Serif" font-size="9.00">date = issue_date)</text>
</g>
<!-- mi&#45;&gt;RM -->
<g id="edge4" class="edge">
<title>mi&#45;&gt;RM</title>
<path fill="none" stroke="#999999" stroke-dasharray="5,2" d="M115.41,-58.56C136.94,-58.56 162.05,-58.56 186.06,-58.56"/>
<polygon fill="#999999" stroke="#999999" points="185.85,-62.06 195.85,-58.56 185.85,-55.06 185.85,-62.06"/>
<text text-anchor="middle" x="156.25" y="-60.71" font-family="Helvetica,sans-Serif" font-size="8.00" fill="#666666">drawn from</text>
</g>
<!-- lt -->
<g id="node5" class="node">
<title>lt</title>
<polygon fill="#f4f4f4" stroke="#999999" points="343.62,-230.44 211.38,-230.44 211.38,-188.69 349.62,-188.69 349.62,-224.44 343.62,-230.44"/>
<polyline fill="none" stroke="#999999" points="343.62,-230.44 343.62,-224.44"/>
<polyline fill="none" stroke="#999999" points="349.62,-224.44 343.62,-224.44"/>
<text text-anchor="middle" x="280.5" y="-217.89" font-family="Helvetica,sans-Serif" font-size="9.00">labor_ticket</text>
<text text-anchor="middle" x="280.5" y="-206.64" font-family="Helvetica,sans-Serif" font-size="9.00">(labor_cost + burden_cost,</text>
<text text-anchor="middle" x="280.5" y="-195.39" font-family="Helvetica,sans-Serif" font-size="9.00">date = clock_out)</text>
</g>
<!-- lt&#45;&gt;WIP -->
<g id="edge3" class="edge">
<title>lt&#45;&gt;WIP</title>
<path fill="none" stroke="#7a3d7a" stroke-width="2" d="M349.77,-197.79C411.88,-187.08 503.88,-171.22 571.29,-159.6"/>
<polygon fill="#7a3d7a" stroke="#7a3d7a" stroke-width="2" points="570.07,-163.36 579.33,-158.21 568.88,-156.46 570.07,-163.36"/>
<text text-anchor="middle" x="461.75" y="-233.06" font-family="Helvetica,sans-Serif" font-size="10.00" fill="#7a3d7a">Labor Applied</text>
<text text-anchor="middle" x="461.75" y="-220.31" font-family="Helvetica,sans-Serif" font-size="10.00" fill="#7a3d7a">post_labor &#160;LABOR &#160;(+WIP)</text>
<text text-anchor="middle" x="461.75" y="-207.56" font-family="Helvetica,sans-Serif" font-size="10.00" fill="#7a3d7a">Overhead Applied</text>
<text text-anchor="middle" x="461.75" y="-194.81" font-family="Helvetica,sans-Serif" font-size="10.00" fill="#7a3d7a">post_overhead &#160;BURDEN &#160;(+WIP)</text>
</g>
<!-- wo -->
<g id="node6" class="node">
<title>wo</title>
<polygon fill="#f4f4f4" stroke="#999999" points="350,-171.06 205,-171.06 205,-118.06 356,-118.06 356,-165.06 350,-171.06"/>
<polyline fill="none" stroke="#999999" points="350,-171.06 350,-165.06"/>
<polyline fill="none" stroke="#999999" points="356,-165.06 350,-165.06"/>
<text text-anchor="middle" x="280.5" y="-158.51" font-family="Helvetica,sans-Serif" font-size="9.00">work_order (closed)</text>
<text text-anchor="middle" x="280.5" y="-147.26" font-family="Helvetica,sans-Serif" font-size="9.00">(amount = act_mat + act_lab</text>
<text text-anchor="middle" x="280.5" y="-136.01" font-family="Helvetica,sans-Serif" font-size="9.00">+ act_bur cost,</text>
<text text-anchor="middle" x="280.5" y="-124.76" font-family="Helvetica,sans-Serif" font-size="9.00">date = close_date)</text>
</g>
<!-- wo&#45;&gt;WIP -->
<g id="edge5" class="edge">
<title>wo&#45;&gt;WIP</title>
<path fill="none" stroke="#999999" stroke-dasharray="5,2" d="M356.43,-144.56C418.12,-144.56 505.67,-144.56 570.64,-144.56"/>
<polygon fill="#999999" stroke="#999999" points="570.58,-148.06 580.58,-144.56 570.58,-141.06 570.58,-148.06"/>
<text text-anchor="middle" x="461.75" y="-146.71" font-family="Helvetica,sans-Serif" font-size="8.00" fill="#666666">relieves accumulated WIP</text>
</g>
</g>
</svg>
