<?xml version="1.0" encoding="UTF-8" standalone="no"?>
<!DOCTYPE svg PUBLIC "-//W3C//DTD SVG 1.1//EN"
 "http://www.w3.org/Graphics/SVG/1.1/DTD/svg11.dtd">
<!-- Generated by graphviz version 10.0.1 (0)
 -->
<!-- Title: ledger_ontology Pages: 1 -->
<svg width="1323pt" height="941pt"
 viewBox="0.00 0.00 1323.00 940.93" xmlns="http://www.w3.org/2000/svg" xmlns:xlink="http://www.w3.org/1999/xlink">
<g id="graph0" class="graph" transform="scale(1 1) rotate(0) translate(4 936.93)">
<title>ledger_ontology</title>
<polygon fill="white" stroke="none" points="-4,4 -4,-936.93 1319,-936.93 1319,4 -4,4"/>
<text text-anchor="middle" x="657.5" y="-915.63" font-family="Helvetica,sans-Serif" font-size="14.00">Job&#45;Costing Ledger Ontology</text>
<text text-anchor="middle" x="657.5" y="-898.38" font-family="Helvetica,sans-Serif" font-size="14.00">SKOS concept scheme (ledger_skos.jsonld) + OWL event layer (ledger_events.ttl)</text>
<text text-anchor="middle" x="657.5" y="-881.13" font-family="Helvetica,sans-Serif" font-size="14.00">shared namespace http://example.org/manufacturing/ledger#</text>
<g id="clust1" class="cluster">
<title>cluster_skos</title>
<path fill="#eef5fc" stroke="#dbe9f6" d="M566.5,-17.18C566.5,-17.18 1021,-17.18 1021,-17.18 1027,-17.18 1033,-23.18 1033,-29.18 1033,-29.18 1033,-660.18 1033,-660.18 1033,-666.18 1027,-672.18 1021,-672.18 1021,-672.18 566.5,-672.18 566.5,-672.18 560.5,-672.18 554.5,-666.18 554.5,-660.18 554.5,-660.18 554.5,-29.18 554.5,-29.18 554.5,-23.18 560.5,-17.18 566.5,-17.18"/>
<text text-anchor="middle" x="793.75" y="-654.88" font-family="Helvetica,sans-Serif" font-size="14.00">SKOS concept scheme &#160;:JobCostingLedgerScheme &#160;(JSON&#45;LD)</text>
</g>
<g id="clust2" class="cluster">
<title>cluster_owl</title>
<path fill="#f8f3e9" stroke="#e7dcc8" d="M20,-680.18C20,-680.18 1295,-680.18 1295,-680.18 1301,-680.18 1307,-686.18 1307,-692.18 1307,-692.18 1307,-853.18 1307,-853.18 1307,-859.18 1301,-865.18 1295,-865.18 1295,-865.18 20,-865.18 20,-865.18 14,-865.18 8,-859.18 8,-853.18 8,-853.18 8,-692.18 8,-692.18 8,-686.18 14,-680.18 20,-680.18"/>
<text text-anchor="middle" x="657.5" y="-847.88" font-family="Helvetica,sans-Serif" font-size="14.00">OWL event classes &#160;(Turtle, OWL 2 QL)</text>
</g>
<!-- RawMaterialsInventory -->
<g id="node1" class="node">
<title>RawMaterialsInventory</title>
<path fill="#cfe3f5" stroke="#5b8db8" d="M1013,-121.43C1013,-121.43 862,-121.43 862,-121.43 856,-121.43 850,-115.43 850,-109.43 850,-109.43 850,-84.93 850,-84.93 850,-78.93 856,-72.93 862,-72.93 862,-72.93 1013,-72.93 1013,-72.93 1019,-72.93 1025,-78.93 1025,-84.93 1025,-84.93 1025,-109.43 1025,-109.43 1025,-115.43 1019,-121.43 1013,-121.43"/>
<text text-anchor="middle" x="937.5" y="-106.98" font-family="Helvetica,sans-Serif" font-size="11.00">skos:Concept</text>
<text text-anchor="middle" x="937.5" y="-93.48" font-family="Helvetica,sans-Serif" font-size="11.00">:RawMaterialsInventory</text>
<text text-anchor="middle" x="937.5" y="-79.98" font-family="Helvetica,sans-Serif" font-size="11.00">(gl_raw_materials_inventory)</text>
</g>
<!-- WIPInventory -->
<g id="node2" class="node">
<title>WIPInventory</title>
<path fill="#cfe3f5" stroke="#5b8db8" d="M698.12,-638.43C698.12,-638.43 605.62,-638.43 605.62,-638.43 599.62,-638.43 593.62,-632.43 593.62,-626.43 593.62,-626.43 593.62,-601.93 593.62,-601.93 593.62,-595.93 599.62,-589.93 605.62,-589.93 605.62,-589.93 698.12,-589.93 698.12,-589.93 704.12,-589.93 710.12,-595.93 710.12,-601.93 710.12,-601.93 710.12,-626.43 710.12,-626.43 710.12,-632.43 704.12,-638.43 698.12,-638.43"/>
<text text-anchor="middle" x="651.88" y="-623.98" font-family="Helvetica,sans-Serif" font-size="11.00">skos:Concept</text>
<text text-anchor="middle" x="651.88" y="-610.48" font-family="Helvetica,sans-Serif" font-size="11.00">:WIPInventory</text>
<text text-anchor="middle" x="651.88" y="-596.98" font-family="Helvetica,sans-Serif" font-size="11.00">(gl_wip_inventory)</text>
</g>
<!-- FinishedGoodsInventory -->
<g id="node3" class="node">
<title>FinishedGoodsInventory</title>
<path fill="#cfe3f5" stroke="#5b8db8" d="M729.25,-571.43C729.25,-571.43 574.5,-571.43 574.5,-571.43 568.5,-571.43 562.5,-565.43 562.5,-559.43 562.5,-559.43 562.5,-534.93 562.5,-534.93 562.5,-528.93 568.5,-522.93 574.5,-522.93 574.5,-522.93 729.25,-522.93 729.25,-522.93 735.25,-522.93 741.25,-528.93 741.25,-534.93 741.25,-534.93 741.25,-559.43 741.25,-559.43 741.25,-565.43 735.25,-571.43 729.25,-571.43"/>
<text text-anchor="middle" x="651.88" y="-556.98" font-family="Helvetica,sans-Serif" font-size="11.00">skos:Concept</text>
<text text-anchor="middle" x="651.88" y="-543.48" font-family="Helvetica,sans-Serif" font-size="11.00">:FinishedGoodsInventory</text>
<text text-anchor="middle" x="651.88" y="-529.98" font-family="Helvetica,sans-Serif" font-size="11.00">(gl_finished_goods_inventory)</text>
</g>
<!-- JobCostDetail -->
<g id="node4" class="node">
<title>JobCostDetail</title>
<path fill="#cfe3f5" stroke="#5b8db8" d="M700.38,-181.43C700.38,-181.43 603.38,-181.43 603.38,-181.43 597.38,-181.43 591.38,-175.43 591.38,-169.43 591.38,-169.43 591.38,-144.93 591.38,-144.93 591.38,-138.93 597.38,-132.93 603.38,-132.93 603.38,-132.93 700.38,-132.93 700.38,-132.93 706.38,-132.93 712.38,-138.93 712.38,-144.93 712.38,-144.93 712.38,-169.43 712.38,-169.43 712.38,-175.43 706.38,-181.43 700.38,-181.43"/>
<text text-anchor="middle" x="651.88" y="-166.98" font-family="Helvetica,sans-Serif" font-size="11.00">skos:Concept</text>
<text text-anchor="middle" x="651.88" y="-153.48" font-family="Helvetica,sans-Serif" font-size="11.00">:JobCostDetail</text>
<text text-anchor="middle" x="651.88" y="-139.98" font-family="Helvetica,sans-Serif" font-size="11.00">(gl_job_cost_detail)</text>
</g>
<!-- CostAccumulationEvent -->
<g id="node5" class="node">
<title>CostAccumulationEvent</title>
<path fill="#cfe3f5" stroke="#5b8db8" d="M1000.62,-457.43C1000.62,-457.43 874.38,-457.43 874.38,-457.43 868.38,-457.43 862.38,-451.43 862.38,-445.43 862.38,-445.43 862.38,-420.93 862.38,-420.93 862.38,-414.93 868.38,-408.93 874.38,-408.93 874.38,-408.93 1000.62,-408.93 1000.62,-408.93 1006.62,-408.93 1012.62,-414.93 1012.62,-420.93 1012.62,-420.93 1012.62,-445.43 1012.62,-445.43 1012.62,-451.43 1006.62,-457.43 1000.62,-457.43"/>
<text text-anchor="middle" x="937.5" y="-442.98" font-family="Helvetica,sans-Serif" font-size="11.00">skos:Concept</text>
<text text-anchor="middle" x="937.5" y="-429.48" font-family="Helvetica,sans-Serif" font-size="11.00">:CostAccumulationEvent</text>
<text text-anchor="middle" x="937.5" y="-415.98" font-family="Helvetica,sans-Serif" font-size="11.00">(gl_events)</text>
</g>
<!-- Standards -->
<g id="node6" class="node">
<title>Standards</title>
<path fill="#e4eff9" stroke="#5b8db8" d="M699.62,-235.18C699.62,-235.18 604.12,-235.18 604.12,-235.18 598.12,-235.18 592.12,-229.18 592.12,-223.18 592.12,-223.18 592.12,-211.18 592.12,-211.18 592.12,-205.18 598.12,-199.18 604.12,-199.18 604.12,-199.18 699.62,-199.18 699.62,-199.18 705.62,-199.18 711.62,-205.18 711.62,-211.18 711.62,-211.18 711.62,-223.18 711.62,-223.18 711.62,-229.18 705.62,-235.18 699.62,-235.18"/>
<text text-anchor="middle" x="651.88" y="-219.88" font-family="Helvetica,sans-Serif" font-size="9.00">:StandardsRawMaterial</text>
<text text-anchor="middle" x="651.88" y="-208.63" font-family="Helvetica,sans-Serif" font-size="9.00">&quot;Standards&quot;</text>
</g>
<!-- Standards&#45;&gt;RawMaterialsInventory -->
<g id="edge1" class="edge">
<title>Standards&#45;&gt;RawMaterialsInventory</title>
<path fill="none" stroke="#5b8db8" d="M711.76,-200.52C721.69,-197.34 731.83,-193.84 741.25,-190.18 788.96,-171.65 841.22,-146.48 879.66,-127"/>
<polygon fill="#5b8db8" stroke="#5b8db8" points="880.95,-130.27 888.27,-122.61 877.77,-124.04 880.95,-130.27"/>
<text text-anchor="middle" x="795.62" y="-183.88" font-family="Helvetica,sans-Serif" font-size="9.00">skos:broader</text>
</g>
<!-- DetailParts -->
<g id="node7" class="node">
<title>DetailParts</title>
<path fill="#e4eff9" stroke="#5b8db8" d="M700.38,-289.18C700.38,-289.18 603.38,-289.18 603.38,-289.18 597.38,-289.18 591.38,-283.18 591.38,-277.18 591.38,-277.18 591.38,-265.18 591.38,-265.18 591.38,-259.18 597.38,-253.18 603.38,-253.18 603.38,-253.18 700.38,-253.18 700.38,-253.18 706.38,-253.18 712.38,-259.18 712.38,-265.18 712.38,-265.18 712.38,-277.18 712.38,-277.18 712.38,-283.18 706.38,-289.18 700.38,-289.18"/>
<text text-anchor="middle" x="651.88" y="-273.88" font-family="Helvetica,sans-Serif" font-size="9.00">:DetailPartsRawMaterial</text>
<text text-anchor="middle" x="651.88" y="-262.63" font-family="Helvetica,sans-Serif" font-size="9.00">&quot;Detail Parts&quot;</text>
</g>
<!-- DetailParts&#45;&gt;RawMaterialsInventory -->
<g id="edge2" class="edge">
<title>DetailParts&#45;&gt;RawMaterialsInventory</title>
<path fill="none" stroke="#5b8db8" d="M712.84,-254.55C722.45,-251.4 732.2,-247.92 741.25,-244.18 783.43,-226.77 794.93,-222.78 832,-196.18 859.3,-176.59 886.76,-150.26 906.67,-129.68"/>
<polygon fill="#5b8db8" stroke="#5b8db8" points="909.03,-132.28 913.4,-122.63 903.97,-127.45 909.03,-132.28"/>
<text text-anchor="middle" x="795.62" y="-238.88" font-family="Helvetica,sans-Serif" font-size="9.00">skos:broader</text>
</g>
<!-- Components -->
<g id="node8" class="node">
<title>Components</title>
<path fill="#e4eff9" stroke="#5b8db8" d="M704.88,-61.18C704.88,-61.18 598.88,-61.18 598.88,-61.18 592.88,-61.18 586.88,-55.18 586.88,-49.18 586.88,-49.18 586.88,-37.18 586.88,-37.18 586.88,-31.18 592.88,-25.18 598.88,-25.18 598.88,-25.18 704.88,-25.18 704.88,-25.18 710.88,-25.18 716.88,-31.18 716.88,-37.18 716.88,-37.18 716.88,-49.18 716.88,-49.18 716.88,-55.18 710.88,-61.18 704.88,-61.18"/>
<text text-anchor="middle" x="651.88" y="-45.88" font-family="Helvetica,sans-Serif" font-size="9.00">:ComponentsRawMaterial</text>
<text text-anchor="middle" x="651.88" y="-34.63" font-family="Helvetica,sans-Serif" font-size="9.00">&quot;Components&quot;</text>
</g>
<!-- Components&#45;&gt;RawMaterialsInventory -->
<g id="edge3" class="edge">
<title>Components&#45;&gt;RawMaterialsInventory</title>
<path fill="none" stroke="#5b8db8" d="M717.23,-55.44C753.01,-62.25 798.28,-70.87 838.38,-78.5"/>
<polygon fill="#5b8db8" stroke="#5b8db8" points="837.58,-81.91 848.06,-80.34 838.89,-75.04 837.58,-81.91"/>
<text text-anchor="middle" x="795.62" y="-78.88" font-family="Helvetica,sans-Serif" font-size="9.00">skos:broader</text>
</g>
<!-- SheetMetal -->
<g id="node9" class="node">
<title>SheetMetal</title>
<path fill="#e4eff9" stroke="#5b8db8" d="M701.5,-115.18C701.5,-115.18 602.25,-115.18 602.25,-115.18 596.25,-115.18 590.25,-109.18 590.25,-103.18 590.25,-103.18 590.25,-91.18 590.25,-91.18 590.25,-85.18 596.25,-79.18 602.25,-79.18 602.25,-79.18 701.5,-79.18 701.5,-79.18 707.5,-79.18 713.5,-85.18 713.5,-91.18 713.5,-91.18 713.5,-103.18 713.5,-103.18 713.5,-109.18 707.5,-115.18 701.5,-115.18"/>
<text text-anchor="middle" x="651.88" y="-99.88" font-family="Helvetica,sans-Serif" font-size="9.00">:SheetMetalRawMaterial</text>
<text text-anchor="middle" x="651.88" y="-88.63" font-family="Helvetica,sans-Serif" font-size="9.00">&quot;Sheet Metal&quot;</text>
</g>
<!-- SheetMetal&#45;&gt;RawMaterialsInventory -->
<g id="edge4" class="edge">
<title>SheetMetal&#45;&gt;RawMaterialsInventory</title>
<path fill="none" stroke="#5b8db8" d="M713.72,-97.18C749.95,-97.18 796.78,-97.18 838.15,-97.18"/>
<polygon fill="#5b8db8" stroke="#5b8db8" points="838.14,-100.68 848.14,-97.18 838.14,-93.68 838.14,-100.68"/>
<text text-anchor="middle" x="795.62" y="-99.88" font-family="Helvetica,sans-Serif" font-size="9.00">skos:broader</text>
</g>
<!-- MaterialIssued -->
<g id="node10" class="node">
<title>MaterialIssued</title>
<path fill="#e4eff9" stroke="#5b8db8" d="M691,-343.18C691,-343.18 612.75,-343.18 612.75,-343.18 606.75,-343.18 600.75,-337.18 600.75,-331.18 600.75,-331.18 600.75,-319.18 600.75,-319.18 600.75,-313.18 606.75,-307.18 612.75,-307.18 612.75,-307.18 691,-307.18 691,-307.18 697,-307.18 703,-313.18 703,-319.18 703,-319.18 703,-331.18 703,-331.18 703,-337.18 697,-343.18 691,-343.18"/>
<text text-anchor="middle" x="651.88" y="-327.88" font-family="Helvetica,sans-Serif" font-size="9.00">:MaterialIssued</text>
<text text-anchor="middle" x="651.88" y="-316.63" font-family="Helvetica,sans-Serif" font-size="9.00">notation RM_ISSUE</text>
</g>
<!-- MaterialIssued&#45;&gt;CostAccumulationEvent -->
<g id="edge5" class="edge">
<title>MaterialIssued&#45;&gt;CostAccumulationEvent</title>
<path fill="none" stroke="#5b8db8" d="M703.46,-340.26C715.85,-344.05 729.05,-348.19 741.25,-352.18 781.86,-365.48 792.45,-367.75 832,-383.93 846.56,-389.89 862.01,-396.83 876.44,-403.58"/>
<polygon fill="#5b8db8" stroke="#5b8db8" points="874.84,-406.69 885.37,-407.79 877.83,-400.36 874.84,-406.69"/>
<text text-anchor="middle" x="795.62" y="-385.88" font-family="Helvetica,sans-Serif" font-size="9.00">skos:broader</text>
</g>
<!-- LaborApplied -->
<g id="node11" class="node">
<title>LaborApplied</title>
<path fill="#e4eff9" stroke="#5b8db8" d="M683.12,-397.18C683.12,-397.18 620.62,-397.18 620.62,-397.18 614.62,-397.18 608.62,-391.18 608.62,-385.18 608.62,-385.18 608.62,-373.18 608.62,-373.18 608.62,-367.18 614.62,-361.18 620.62,-361.18 620.62,-361.18 683.12,-361.18 683.12,-361.18 689.12,-361.18 695.12,-367.18 695.12,-373.18 695.12,-373.18 695.12,-385.18 695.12,-385.18 695.12,-391.18 689.12,-397.18 683.12,-397.18"/>
<text text-anchor="middle" x="651.88" y="-381.88" font-family="Helvetica,sans-Serif" font-size="9.00">:LaborApplied</text>
<text text-anchor="middle" x="651.88" y="-370.63" font-family="Helvetica,sans-Serif" font-size="9.00">notation LABOR</text>
</g>
<!-- LaborApplied&#45;&gt;CostAccumulationEvent -->
<g id="edge6" class="edge">
<title>LaborApplied&#45;&gt;CostAccumulationEvent</title>
<path fill="none" stroke="#5b8db8" d="M695.34,-387.27C736.3,-395.07 799.48,-407.09 850.9,-416.88"/>
<polygon fill="#5b8db8" stroke="#5b8db8" points="850.05,-420.29 860.53,-418.72 851.36,-413.41 850.05,-420.29"/>
<text text-anchor="middle" x="795.62" y="-414.88" font-family="Helvetica,sans-Serif" font-size="9.00">skos:broader</text>
</g>
<!-- OverheadApplied -->
<g id="node12" class="node">
<title>OverheadApplied</title>
<path fill="#e4eff9" stroke="#5b8db8" d="M688,-451.18C688,-451.18 615.75,-451.18 615.75,-451.18 609.75,-451.18 603.75,-445.18 603.75,-439.18 603.75,-439.18 603.75,-427.18 603.75,-427.18 603.75,-421.18 609.75,-415.18 615.75,-415.18 615.75,-415.18 688,-415.18 688,-415.18 694,-415.18 700,-421.18 700,-427.18 700,-427.18 700,-439.18 700,-439.18 700,-445.18 694,-451.18 688,-451.18"/>
<text text-anchor="middle" x="651.88" y="-435.88" font-family="Helvetica,sans-Serif" font-size="9.00">:OverheadApplied</text>
<text text-anchor="middle" x="651.88" y="-424.63" font-family="Helvetica,sans-Serif" font-size="9.00">notation BURDEN</text>
</g>
<!-- OverheadApplied&#45;&gt;CostAccumulationEvent -->
<g id="edge7" class="edge">
<title>OverheadApplied&#45;&gt;CostAccumulationEvent</title>
<path fill="none" stroke="#5b8db8" d="M700.35,-433.18C741.24,-433.18 801.28,-433.18 850.59,-433.18"/>
<polygon fill="#5b8db8" stroke="#5b8db8" points="850.39,-436.68 860.39,-433.18 850.39,-429.68 850.39,-436.68"/>
<text text-anchor="middle" x="795.62" y="-435.88" font-family="Helvetica,sans-Serif" font-size="9.00">skos:broader</text>
</g>
<!-- JobCompletion -->
<g id="node13" class="node">
<title>JobCompletion</title>
<path fill="#e4eff9" stroke="#5b8db8" d="M705.62,-505.18C705.62,-505.18 598.12,-505.18 598.12,-505.18 592.12,-505.18 586.12,-499.18 586.12,-493.18 586.12,-493.18 586.12,-481.18 586.12,-481.18 586.12,-475.18 592.12,-469.18 598.12,-469.18 598.12,-469.18 705.62,-469.18 705.62,-469.18 711.62,-469.18 717.62,-475.18 717.62,-481.18 717.62,-481.18 717.62,-493.18 717.62,-493.18 717.62,-499.18 711.62,-505.18 705.62,-505.18"/>
<text text-anchor="middle" x="651.88" y="-489.88" font-family="Helvetica,sans-Serif" font-size="9.00">:JobCompletion</text>
<text text-anchor="middle" x="651.88" y="-478.63" font-family="Helvetica,sans-Serif" font-size="9.00">notation FG_COMPLETION</text>
</g>
<!-- JobCompletion&#45;&gt;CostAccumulationEvent -->
<g id="edge8" class="edge">
<title>JobCompletion&#45;&gt;CostAccumulationEvent</title>
<path fill="none" stroke="#5b8db8" d="M717.94,-474.79C757.35,-467.29 808.08,-457.63 850.74,-449.51"/>
<polygon fill="#5b8db8" stroke="#5b8db8" points="851.31,-452.96 860.48,-447.66 850,-446.09 851.31,-452.96"/>
<text text-anchor="middle" x="795.62" y="-468.88" font-family="Helvetica,sans-Serif" font-size="9.00">skos:broader</text>
</g>
<!-- LedgerEvent -->
<g id="node14" class="node">
<title>LedgerEvent</title>
<polygon fill="#f0e3c8" stroke="#b09660" points="696.25,-724.18 607.5,-724.18 607.5,-688.18 696.25,-688.18 696.25,-724.18"/>
<text text-anchor="middle" x="651.88" y="-709.23" font-family="Helvetica,sans-Serif" font-size="11.00">owl:Class</text>
<text text-anchor="middle" x="651.88" y="-695.73" font-family="Helvetica,sans-Serif" font-size="11.00">:LedgerEvent</text>
</g>
<!-- LedgerEvent&#45;&gt;CostAccumulationEvent -->
<g id="edge19" class="edge">
<title>LedgerEvent&#45;&gt;CostAccumulationEvent</title>
<path fill="none" stroke="#888888" stroke-dasharray="5,2" d="M696.54,-696.69C711.59,-692.08 727.97,-685.47 741.25,-676.18 822.31,-619.46 887.17,-519.83 917.63,-467.5"/>
<polygon fill="#888888" stroke="#888888" points="920.56,-469.42 922.5,-459.01 914.49,-465.94 920.56,-469.42"/>
<text text-anchor="middle" x="795.62" y="-662.88" font-family="Helvetica,sans-Serif" font-size="9.00" fill="#888888">skos:closeMatch</text>
</g>
<!-- Job -->
<g id="node20" class="node">
<title>Job</title>
<polygon fill="#f0e3c8" stroke="#b09660" points="1011.12,-739.43 863.88,-739.43 863.88,-690.93 1011.12,-690.93 1011.12,-739.43"/>
<text text-anchor="middle" x="937.5" y="-724.98" font-family="Helvetica,sans-Serif" font-size="11.00">owl:Class</text>
<text text-anchor="middle" x="937.5" y="-711.48" font-family="Helvetica,sans-Serif" font-size="11.00">:WorkOrder</text>
<text text-anchor="middle" x="937.5" y="-697.98" font-family="Helvetica,sans-Serif" font-size="11.00">(work_order, key wo_id)</text>
</g>
<!-- LedgerEvent&#45;&gt;Job -->
<g id="edge17" class="edge">
<title>LedgerEvent&#45;&gt;Job</title>
<path fill="none" stroke="#3d7a3d" stroke-width="2" d="M696.57,-707.57C737.89,-708.88 801,-710.88 852.12,-712.51"/>
<polygon fill="#3d7a3d" stroke="#3d7a3d" stroke-width="2" points="850.37,-715.95 860.48,-712.77 850.59,-708.95 850.37,-715.95"/>
<text text-anchor="middle" x="795.62" y="-713.88" font-family="Helvetica,sans-Serif" font-size="9.00" fill="#3d7a3d">:forJob</text>
</g>
<!-- WIPAdditionEvent -->
<g id="node15" class="node">
<title>WIPAdditionEvent</title>
<polygon fill="#f0e3c8" stroke="#b09660" points="410.25,-778.18 293.75,-778.18 293.75,-742.18 410.25,-742.18 410.25,-778.18"/>
<text text-anchor="middle" x="352" y="-763.23" font-family="Helvetica,sans-Serif" font-size="11.00">owl:Class</text>
<text text-anchor="middle" x="352" y="-749.73" font-family="Helvetica,sans-Serif" font-size="11.00">:WIPAdditionEvent</text>
</g>
<!-- WIPAdditionEvent&#45;&gt;WIPInventory -->
<g id="edge15" class="edge">
<title>WIPAdditionEvent&#45;&gt;WIPInventory</title>
<path fill="none" stroke="#3d7a3d" stroke-width="2" d="M406.13,-741.83C410.06,-739.29 413.75,-736.42 417,-733.18 431.46,-718.78 420.13,-704.92 435,-690.93 475.28,-653.04 535.49,-633.67 582.09,-623.88"/>
<polygon fill="#3d7a3d" stroke="#3d7a3d" stroke-width="2" points="581.23,-627.62 590.35,-622.24 579.86,-620.75 581.23,-627.62"/>
<text text-anchor="middle" x="489.75" y="-692.88" font-family="Helvetica,sans-Serif" font-size="9.00" fill="#3d7a3d">:addsCostToWIP</text>
</g>
<!-- WIPAdditionEvent&#45;&gt;LedgerEvent -->
<g id="edge9" class="edge">
<title>WIPAdditionEvent&#45;&gt;LedgerEvent</title>
<path fill="none" stroke="#b09660" d="M410.43,-749.77C463.98,-740.06 543.3,-725.68 596.01,-716.13"/>
<polygon fill="#b09660" stroke="#b09660" points="596.46,-719.6 605.67,-714.38 595.21,-712.72 596.46,-719.6"/>
<text text-anchor="middle" x="489.75" y="-746.88" font-family="Helvetica,sans-Serif" font-size="9.00">rdfs:subClassOf</text>
</g>
<!-- MaterialIssueEvent -->
<g id="node16" class="node">
<title>MaterialIssueEvent</title>
<polygon fill="#f0e3c8" stroke="#b09660" points="161.38,-724.18 36.63,-724.18 36.63,-688.18 161.38,-688.18 161.38,-724.18"/>
<text text-anchor="middle" x="99" y="-709.23" font-family="Helvetica,sans-Serif" font-size="11.00">owl:Class</text>
<text text-anchor="middle" x="99" y="-695.73" font-family="Helvetica,sans-Serif" font-size="11.00">:MaterialIssueEvent</text>
</g>
<!-- MaterialIssueEvent&#45;&gt;RawMaterialsInventory -->
<g id="edge14" class="edge">
<title>MaterialIssueEvent&#45;&gt;RawMaterialsInventory</title>
<path fill="none" stroke="#3d7a3d" stroke-width="2" d="M101.51,-687.85C106.81,-632.22 128.29,-461.97 200,-344.18 311.62,-160.84 354.63,-94.46 554.5,-16.18 667.09,27.91 808.22,-28.75 883.47,-67.18"/>
<polygon fill="#3d7a3d" stroke="#3d7a3d" stroke-width="2" points="880.47,-69.57 890.96,-71.08 883.7,-63.36 880.47,-69.57"/>
<text text-anchor="middle" x="489.75" y="-74.88" font-family="Helvetica,sans-Serif" font-size="9.00" fill="#3d7a3d">:consumesMaterial</text>
</g>
<!-- MaterialIssueEvent&#45;&gt;MaterialIssued -->
<g id="edge20" class="edge">
<title>MaterialIssueEvent&#45;&gt;MaterialIssued</title>
<path fill="none" stroke="#888888" stroke-dasharray="5,2" d="M99.95,-687.71C100.86,-633.58 111.3,-474.12 200,-393.18 307.47,-295.12 493,-302.81 589.13,-314.95"/>
<polygon fill="#888888" stroke="#888888" points="588.52,-318.4 598.9,-316.25 589.45,-311.46 588.52,-318.4"/>
<text text-anchor="middle" x="352" y="-340.88" font-family="Helvetica,sans-Serif" font-size="9.00" fill="#888888">skos:closeMatch</text>
</g>
<!-- MaterialIssueEvent&#45;&gt;WIPAdditionEvent -->
<g id="edge10" class="edge">
<title>MaterialIssueEvent&#45;&gt;WIPAdditionEvent</title>
<path fill="none" stroke="#b09660" d="M161.72,-719.46C198.32,-727.33 244.77,-737.33 282.49,-745.44"/>
<polygon fill="#b09660" stroke="#b09660" points="281.4,-748.79 291.91,-747.47 282.87,-741.95 281.4,-748.79"/>
<text text-anchor="middle" x="234.5" y="-742.88" font-family="Helvetica,sans-Serif" font-size="9.00">rdfs:subClassOf</text>
</g>
<!-- LaborApplicationEvent -->
<g id="node17" class="node">
<title>LaborApplicationEvent</title>
<polygon fill="#f0e3c8" stroke="#b09660" points="170.38,-778.18 27.62,-778.18 27.62,-742.18 170.38,-742.18 170.38,-778.18"/>
<text text-anchor="middle" x="99" y="-763.23" font-family="Helvetica,sans-Serif" font-size="11.00">owl:Class</text>
<text text-anchor="middle" x="99" y="-749.73" font-family="Helvetica,sans-Serif" font-size="11.00">:LaborApplicationEvent</text>
</g>
<!-- LaborApplicationEvent&#45;&gt;LaborApplied -->
<g id="edge21" class="edge">
<title>LaborApplicationEvent&#45;&gt;LaborApplied</title>
<path fill="none" stroke="#888888" stroke-dasharray="5,2" d="M170.65,-743.84C174.93,-740.86 178.79,-737.34 182,-733.18 221.45,-682.07 158.03,-492.25 200,-443.18 298.02,-328.57 500.28,-349.22 597.03,-367.2"/>
<polygon fill="#888888" stroke="#888888" points="596.32,-370.63 606.81,-369.08 597.65,-363.75 596.32,-370.63"/>
<text text-anchor="middle" x="352" y="-381.88" font-family="Helvetica,sans-Serif" font-size="9.00" fill="#888888">skos:closeMatch</text>
</g>
<!-- LaborApplicationEvent&#45;&gt;WIPAdditionEvent -->
<g id="edge11" class="edge">
<title>LaborApplicationEvent&#45;&gt;WIPAdditionEvent</title>
<path fill="none" stroke="#b09660" d="M170.59,-760.18C205.5,-760.18 247.47,-760.18 282.15,-760.18"/>
<polygon fill="#b09660" stroke="#b09660" points="282.09,-763.68 292.09,-760.18 282.09,-756.68 282.09,-763.68"/>
<text text-anchor="middle" x="234.5" y="-762.88" font-family="Helvetica,sans-Serif" font-size="9.00">rdfs:subClassOf</text>
</g>
<!-- OverheadApplicationEvent -->
<g id="node18" class="node">
<title>OverheadApplicationEvent</title>
<polygon fill="#f0e3c8" stroke="#b09660" points="182,-832.18 16,-832.18 16,-796.18 182,-796.18 182,-832.18"/>
<text text-anchor="middle" x="99" y="-817.23" font-family="Helvetica,sans-Serif" font-size="11.00">owl:Class</text>
<text text-anchor="middle" x="99" y="-803.73" font-family="Helvetica,sans-Serif" font-size="11.00">:OverheadApplicationEvent</text>
</g>
<!-- OverheadApplicationEvent&#45;&gt;OverheadApplied -->
<g id="edge22" class="edge">
<title>OverheadApplicationEvent&#45;&gt;OverheadApplied</title>
<path fill="none" stroke="#888888" stroke-dasharray="5,2" d="M171.6,-795.79C175.37,-793.28 178.88,-790.42 182,-787.18 202.18,-766.19 184.96,-749.12 200,-724.18 274.68,-600.36 310.94,-573.47 435,-499.18 483.97,-469.86 547.1,-452.53 592.43,-443.05"/>
<polygon fill="#888888" stroke="#888888" points="592.95,-446.52 602.06,-441.11 591.57,-439.65 592.95,-446.52"/>
<text text-anchor="middle" x="352" y="-605.88" font-family="Helvetica,sans-Serif" font-size="9.00" fill="#888888">skos:closeMatch</text>
</g>
<!-- OverheadApplicationEvent&#45;&gt;WIPAdditionEvent -->
<g id="edge12" class="edge">
<title>OverheadApplicationEvent&#45;&gt;WIPAdditionEvent</title>
<path fill="none" stroke="#b09660" d="M182.19,-796.5C214.53,-789.54 251.25,-781.64 282.16,-774.99"/>
<polygon fill="#b09660" stroke="#b09660" points="282.75,-778.45 291.79,-772.92 281.28,-771.6 282.75,-778.45"/>
<text text-anchor="middle" x="234.5" y="-793.88" font-family="Helvetica,sans-Serif" font-size="9.00">rdfs:subClassOf</text>
</g>
<!-- JobCompletionEvent -->
<g id="node19" class="node">
<title>JobCompletionEvent</title>
<polygon fill="#f0e3c8" stroke="#b09660" points="417,-724.18 287,-724.18 287,-688.18 417,-688.18 417,-724.18"/>
<text text-anchor="middle" x="352" y="-709.23" font-family="Helvetica,sans-Serif" font-size="11.00">owl:Class</text>
<text text-anchor="middle" x="352" y="-695.73" font-family="Helvetica,sans-Serif" font-size="11.00">:JobCompletionEvent</text>
</g>
<!-- JobCompletionEvent&#45;&gt;FinishedGoodsInventory -->
<g id="edge16" class="edge">
<title>JobCompletionEvent&#45;&gt;FinishedGoodsInventory</title>
<path fill="none" stroke="#3d7a3d" stroke-width="2" d="M365.7,-687.71C380.27,-667.82 405.94,-636.54 435,-617.93 470.14,-595.44 513.11,-579.45 551.43,-568.44"/>
<polygon fill="#3d7a3d" stroke="#3d7a3d" stroke-width="2" points="550.5,-572.33 559.19,-566.27 548.62,-565.59 550.5,-572.33"/>
<text text-anchor="middle" x="489.75" y="-619.88" font-family="Helvetica,sans-Serif" font-size="9.00" fill="#3d7a3d">:producesFinishedGoods</text>
</g>
<!-- JobCompletionEvent&#45;&gt;JobCompletion -->
<g id="edge23" class="edge">
<title>JobCompletionEvent&#45;&gt;JobCompletion</title>
<path fill="none" stroke="#888888" stroke-dasharray="5,2" d="M358.11,-688.16C367.89,-656.85 392.18,-592.27 435,-555.93 474.26,-522.62 529.82,-505.4 574.74,-496.52"/>
<polygon fill="#888888" stroke="#888888" points="575.23,-499.99 584.42,-494.72 573.95,-493.11 575.23,-499.99"/>
<text text-anchor="middle" x="489.75" y="-557.88" font-family="Helvetica,sans-Serif" font-size="9.00" fill="#888888">skos:closeMatch</text>
</g>
<!-- JobCompletionEvent&#45;&gt;LedgerEvent -->
<g id="edge13" class="edge">
<title>JobCompletionEvent&#45;&gt;LedgerEvent</title>
<path fill="none" stroke="#b09660" d="M417.27,-706.18C470.58,-706.18 545.57,-706.18 596.08,-706.18"/>
<polygon fill="#b09660" stroke="#b09660" points="595.9,-709.68 605.9,-706.18 595.9,-702.68 595.9,-709.68"/>
<text text-anchor="middle" x="489.75" y="-708.88" font-family="Helvetica,sans-Serif" font-size="9.00">rdfs:subClassOf</text>
</g>
<!-- JobLifecycleState -->
<g id="node21" class="node">
<title>JobLifecycleState</title>
<polygon fill="#f0e3c8" stroke="#b09660" points="1299,-750.18 1142.75,-750.18 1142.75,-688.18 1299,-688.18 1299,-750.18"/>
<text text-anchor="middle" x="1220.88" y="-735.73" font-family="Helvetica,sans-Serif" font-size="11.00">owl:Class</text>
<text text-anchor="middle" x="1220.88" y="-722.23" font-family="Helvetica,sans-Serif" font-size="11.00">:WorkOrderLifecycleState</text>
<text text-anchor="middle" x="1220.88" y="-708.73" font-family="Helvetica,sans-Serif" font-size="11.00">unreleased / firmed /</text>
<text text-anchor="middle" x="1220.88" y="-695.23" font-family="Helvetica,sans-Serif" font-size="11.00">released / closed</text>
</g>
<!-- Job&#45;&gt;JobLifecycleState -->
<g id="edge18" class="edge">
<title>Job&#45;&gt;JobLifecycleState</title>
<path fill="none" stroke="#3d7a3d" d="M1011.33,-716.22C1047.93,-716.74 1092.6,-717.37 1131.19,-717.92"/>
<polygon fill="#3d7a3d" stroke="#3d7a3d" points="1130.87,-721.42 1140.91,-718.06 1130.96,-714.42 1130.87,-721.42"/>
<text text-anchor="middle" x="1083.88" y="-719.88" font-family="Helvetica,sans-Serif" font-size="9.00" fill="#3d7a3d">:hasLifecycleState</text>
</g>
</g>
</svg>
